PathFileType	4	(X/Y/Z)	Walk6.trc
DataRate	CameraRate	NumFrames	NumMarkers	Units	OrigDataRate	OrigDataStartFrame	OrigNumFrames
200.000000	200.000000	6	58	mm	200.000000	515	716
Frame#	Times		RCAR		LMT1		RFHD		LTB2		LFHD		LTB3		RUA1		LMT5		LTB4		RElbow		RASI		RFA1		LACR1		LToe		RBHD		LUA1		LASI		RACR1		LTH1		LTH3		RTH3		LCAR		RWRU		LTH2		RLFC		C7		RBack		STRN		LElbow		RTH4		RTH2		CLAV		LTH4		RMT1		LLFC		RWRR		LWRR		RTB4		RTB3		LFA1		LPSI		RPSI		RTB2		RToe		LTB1		RTB1		LWRU		RTH1		LElbowM		LMMAL		LBHD		T10		RLMAL		RMMAL		RCAL		RMT5		LCAL		RElbowM
			X1	Y1	Z1	X2	Y2	Z2	X3	Y3	Z3	X4	Y4	Z4	X5	Y5	Z5	X6	Y6	Z6	X7	Y7	Z7	X8	Y8	Z8	X9	Y9	Z9	X10	Y10	Z10	X11	Y11	Z11	X12	Y12	Z12	X13	Y13	Z13	X14	Y14	Z14	X15	Y15	Z15	X16	Y16	Z16	X17	Y17	Z17	X18	Y18	Z18	X19	Y19	Z19	X20	Y20	Z20	X21	Y21	Z21	X22	Y22	Z22	X23	Y23	Z23	X24	Y24	Z24	X25	Y25	Z25	X26	Y26	Z26	X27	Y27	Z27	X28	Y28	Z28	X29	Y29	Z29	X30	Y30	Z30	X31	Y31	Z31	X32	Y32	Z32	X33	Y33	Z33	X34	Y34	Z34	X35	Y35	Z35	X36	Y36	Z36	X37	Y37	Z37	X38	Y38	Z38	X39	Y39	Z39	X40	Y40	Z40	X41	Y41	Z41	X42	Y42	Z42	X43	Y43	Z43	X44	Y44	Z44	X45	Y45	Z45	X46	Y46	Z46	X47	Y47	Z47	X48	Y48	Z48	X49	Y49	Z49	X50	Y50	Z50	X51	Y51	Z51	X52	Y52	Z52	X53	Y53	Z53	X54	Y54	Z54	X55	Y55	Z55	X56	Y56	Z56	X57	Y57	Z57	X58	Y58	Z58

515	2.575	-20.538	728.16	295.57	-172.95	35.217	-7.3495	204.09	1576.8	41.396	-117.5	260.96	-103.11	181.57	1572.3	-50.797	-158.18	182.16	-50.565	36.278	1153.1	255.8	-197.87	36.428	-85.987	-104.46	248.17	-45.17	-30.699	1039	263.37	209.58	955.44	162.26	-61.575	897.69	275.5	101.94	1356.5	-138.05	-106.9	20.701	-34.757	60.768	1521.7	95.285	144.18	1186.6	-236.18	212.25	933.31	-130.25	82.017	1339.8	174.44	90.878	727.51	-210.98	31.598	580.43	-147.24	231.7	568.92	186.07	374.93	861.32	-250.03	-68.634	788.06	282.11	115.55	644.93	-155.21	258.05	491.12	159.89	15.32	1387.6	21.958	-39.842	1284.2	114.75	220.05	1211.7	23.359	147.52	1062.5	-277.51	202.88	646.53	209.17	253.85	671.44	189.21	156.58	1315.7	16.742	61.022	655.71	-173.32	464.8	44.927	63.097	-9.9222	463.96	-116.59	-6.9848	781.78	247.3	332.09	890.07	-213.37	350.59	265.89	87.939	363.17	181.75	93.686	222.85	943.37	-281.31	-33.527	935.38	-29.05	-34.085	938.7	60.355	328.83	265.35	146.99	528.04	51.111	91.265	-47.324	313.54	-42.51	337.21	352.55	88.913	303.51	856.57	-272.2	174.84	726.42	231.25	110.58	1017.8	-214.68	-245.45	113.91	4.1659	33.859	1508.2	-42.998	-47.031	1120.6	-1.3121	347.52	62.208	122.46	361.04	72.017	39.872	288.4	23.712	85.164	436.68	28.523	135.6	-323.72	125.07	-51.253	-29.487	1015.1	168.9
516	2.58	-13.449	727.98	296.24	-172.38	35.68	-7.4351	210.16	1577.3	42.154	-111.5	261.77	-103.24	187.41	1572.7	-49.98	-153.53	183.62	-50.822	43.373	1153.1	256.69	-196.91	37.699	-85.914	-98.688	248.67	-45.311	-23.481	1038.8	264.37	216.68	956	162.68	-54.319	897.61	276.55	107.95	1356.8	-137.19	-107.26	20.657	-34.689	67.056	1521.9	96.404	149.35	1186.6	-235.34	219.32	933.46	-128.9	88.528	1339.9	175.39	98.327	727.12	-210.17	39.772	579.7	-146.61	237.16	569.35	186.48	379.19	860.65	-249.13	-61.455	788.04	283.27	123.38	644.65	-154.4	263.64	491.39	160.34	21.573	1387.8	23.102	-33.291	1284.2	115.99	226.52	1212.2	24.186	152.27	1062.4	-276.46	208.94	647.15	209.54	260.2	671.62	190.01	162.84	1316.1	17.612	68.803	655.2	-172.56	465.61	42.57	62.446	-1.1224	463.15	-116.15	-0.17049	781.72	247.96	336.5	889.53	-212.41	354.05	265.3	87.369	365.78	181.03	93.111	227.26	943.03	-280.21	-26.7	935.42	-28.679	-27.544	939.07	60.781	332.93	265.07	146.68	529.45	47.424	90.438	-40.432	313.02	-42.531	341.57	352.09	88.368	307.72	856.05	-271.15	181.61	727.24	231.79	115.37	1017.9	-213.43	-242.05	116.97	3.6457	39.826	1508.4	-41.812	-40.652	1120.8	-0.41863	348.66	61.799	122.17	362.01	71.183	39.459	288.74	24.261	85.127	437.14	27.54	135.68	-319.76	130.16	-51.525	-22.452	1015	169.86
517	2.585	-6.187	727.88	296.95	-171.72	36.21	-7.5142	216.24	1577.8	42.927	-105.18	262.64	-103.38	193.26	1573.2	-49.148	-148.55	185.16	-51.093	50.527	1153.2	257.56	-195.86	39.075	-85.809	-92.585	249.22	-45.478	-16.197	1038.8	265.39	223.75	956.69	163.08	-46.951	897.59	277.62	113.98	1357.1	-136.34	-107.68	20.604	-34.619	73.352	1522.3	97.529	154.47	1186.6	-234.51	226.39	933.71	-127.52	95.048	1340.1	176.33	105.85	726.74	-209.32	48.161	578.93	-145.98	242.45	569.84	186.99	383.27	859.93	-248.25	-54.128	788.09	284.47	131.37	644.4	-153.56	269.19	491.74	160.83	27.834	1388.1	24.226	-26.742	1284.3	117.21	232.99	1212.7	25.016	156.93	1062.3	-275.41	214.88	647.87	209.98	266.44	671.85	190.92	169.1	1316.6	18.473	76.726	654.69	-171.78	466.29	40.531	61.868	7.9992	462.29	-115.72	6.8043	781.72	248.66	340.76	888.96	-211.47	357.37	264.78	86.899	368.24	180.39	92.621	231.52	942.7	-279.11	-19.916	935.5	-28.361	-21.053	939.51	61.157	336.83	264.83	146.46	530.69	44.136	89.715	-33.216	312.51	-42.591	345.81	351.69	87.941	311.73	855.51	-270.1	188.28	728.17	232.37	120.07	1018.2	-212.16	-238.3	120.13	3.127	45.796	1508.7	-40.621	-34.294	1121.1	0.44158	349.65	61.467	121.91	362.83	70.464	39.098	289.04	24.761	85.113	437.51	26.778	135.79	-315.38	135.43	-51.719	-15.348	1015	170.84
518	2.59	1.2491	727.85	297.69	-170.97	36.823	-7.5858	222.32	1578.4	43.714	-98.527	263.56	-103.55	199.11	1573.8	-48.302	-143.24	186.78	-51.38	57.737	1153.3	258.41	-194.69	40.56	-85.669	-86.144	249.81	-45.675	-8.8486	1038.8	266.43	230.77	957.48	163.47	-39.473	897.63	278.72	120.03	1357.6	-135.5	-108.14	20.541	-34.547	79.654	1522.6	98.658	159.55	1186.7	-233.69	233.46	934.06	-126.11	101.57	1340.4	177.25	113.45	726.37	-208.45	56.767	578.11	-145.36	247.59	570.42	187.57	387.18	859.16	-247.39	-46.651	788.19	285.7	139.5	644.18	-152.7	274.66	492.19	161.34	34.099	1388.5	25.324	-20.2	1284.5	118.42	239.43	1213.4	25.845	161.51	1062.4	-274.34	220.69	648.67	210.51	272.56	672.16	191.95	175.36	1317.2	19.321	84.789	654.16	-170.98	466.85	38.805	61.363	17.447	461.38	-115.31	13.941	781.8	249.39	344.87	888.38	-210.54	360.55	264.31	86.541	370.53	179.81	92.222	235.66	942.41	-278	-13.178	935.63	-28.093	-14.612	940.01	61.483	340.54	264.63	146.32	531.78	41.25	89.095	-25.666	312	-42.696	349.92	351.34	87.648	315.56	854.95	-269.04	194.83	729.19	233.02	124.7	1018.5	-210.87	-234.17	123.39	2.611	51.77	1509.1	-39.429	-27.96	1121.5	1.2697	350.51	61.204	121.69	363.54	69.857	38.785	289.31	25.207	85.119	437.81	26.21	135.92	-310.56	140.86	-51.834	-8.1784	1015	171.83
519	2.595	8.8612	727.9	298.48	-170.09	37.535	-7.6479	228.41	1579	44.516	-91.538	264.52	-103.74	204.96	1574.5	-47.442	-137.57	188.46	-51.687	64.998	1153.5	259.26	-193.4	42.159	-85.494	-79.353	250.43	-45.904	-1.4394	1039	267.49	237.75	958.39	163.86	-31.885	897.73	279.84	126.1	1358.1	-134.66	-108.62	20.464	-34.474	85.96	1523.1	99.788	164.58	1186.8	-232.88	240.49	934.51	-124.69	108.1	1340.7	178.13	121.11	726.01	-207.55	65.588	577.25	-144.74	252.63	571.09	188.24	390.9	858.33	-246.56	-39.023	788.35	286.96	147.78	643.99	-151.83	280.04	492.73	161.88	40.361	1389	26.394	-13.667	1284.8	119.6	245.86	1214.1	26.67	166.03	1062.5	-273.28	226.38	649.55	211.1	278.57	672.55	193.08	181.62	1317.8	20.151	92.989	653.61	-170.18	467.29	37.378	60.931	27.222	460.42	-114.94	21.239	781.96	250.17	348.83	887.77	-209.63	363.58	263.9	86.304	372.66	179.29	91.919	239.65	942.15	-276.9	-6.4919	935.8	-27.873	-8.2215	940.58	61.761	344.01	264.46	146.26	532.71	38.756	88.573	-17.773	311.5	-42.849	353.9	351.04	87.499	319.2	854.38	-267.99	201.25	730.29	233.71	129.24	1018.9	-209.57	-229.63	126.72	2.0986	57.746	1509.5	-38.239	-21.649	1121.9	2.0676	351.24	61.002	121.5	364.12	69.359	38.518	289.53	25.594	85.142	438.05	25.808	136.06	-305.28	146.42	-51.868	-0.94832	1015.1	172.84
520	2.6	16.651	728.04	299.3	-169.06	38.363	-7.6986	234.5	1579.7	45.331	-84.205	265.53	-103.96	210.82	1575.2	-46.569	-131.54	190.2	-52.015	72.303	1153.8	260.08	-191.96	43.874	-85.28	-72.206	251.09	-46.167	6.0274	1039.1	268.56	244.66	959.41	164.24	-24.191	897.9	280.98	132.17	1358.7	-133.83	-109.09	20.372	-34.401	92.267	1523.5	100.92	169.58	1187.1	-232.09	247.49	935.06	-123.27	114.63	1341.1	178.99	128.83	725.66	-206.63	74.622	576.35	-144.15	257.56	571.84	188.96	394.45	857.44	-245.74	-31.245	788.57	288.25	156.2	643.84	-150.94	285.32	493.33	162.43	46.616	1389.5	27.434	-7.1463	1285.2	120.76	252.25	1214.8	27.489	170.48	1062.6	-272.2	231.96	650.51	211.75	284.48	673.02	194.29	187.88	1318.5	20.959	101.32	653.04	-169.36	467.63	36.227	60.57	37.319	459.43	-114.6	28.698	782.2	250.99	352.64	887.13	-208.73	366.46	263.54	86.193	374.63	178.84	91.717	243.52	941.92	-275.81	0.14114	936.01	-27.696	-1.8785	941.2	61.992	347.25	264.31	146.3	533.5	36.635	88.145	-9.5338	311.01	-43.055	357.72	350.78	87.501	322.66	853.79	-266.95	207.55	731.48	234.47	133.72	1019.4	-208.25	-224.68	130.11	1.5904	63.723	1510.1	-37.054	-15.363	1122.4	2.8374	351.84	60.85	121.36	364.6	68.966	38.294	289.72	25.924	85.182	438.22	25.542	136.2	-299.51	152.11	-51.823	6.3369	1015.3	173.86
